<svg width="48px" height="33px" viewBox="0 0 48 33" version="1.1" xmlns="http://www.w3.org/2000/svg" xmlns:xlink="http://www.w3.org/1999/xlink">
  <g id="icon" transform="translate(24.000000, 16.500000) scale(-1, 1) translate(-24.000000, -16.500000) " fill-rule="nonzero" fill="#3482e6">
    <path d="M19.099,24.127 L9.837,24.127 L7.534,32.738 L0,32.738 L9.837,0.746 L19.434,0.746 L27.75,27.15 L33.184,9.729 L40.164,9.729 L47.492,32.746 L41.735,32.746 L39.92,26.483 L33.184,26.483 L31.509,32.746 L21.594,32.738 L19.099,24.127 Z M10.893,18.924 L18.043,18.924 L16.028,12.126 L15.176,9.036 L14.396,5.947 L14.3,5.947 L13.574,9.064 L12.812,12.206 L10.893,18.924 Z M33.952,22.7 L39.152,22.7 L37.686,17.756 L37.067,15.509 L36.5,13.263 L36.43,13.263 L35.902,15.53 L35.348,17.815 L33.952,22.7 Z" id="Shape"></path>
  </g>
</svg>