<svg xmlns="http://www.w3.org/2000/svg" width="50" height="50" viewBox="0 0 50 50" fill="#3482e6">
    <path style="text-indent:0;text-align:start;line-height:normal;text-transform:none;block-progression:tb;-inkscape-font-specification:Bitstream Vera Sans" d="M 3.8125 2.90625 L 1.6875 3.90625 L 1.90625 5.09375 L 3.5 4.3125 L 3.5 11.40625 L 5.09375 11.40625 L 5.09375 2.90625 L 3.8125 2.90625 z M 11 6 L 11 10 L 50 10 L 50 6 L 11 6 z M 3.6875 19.6875 C 2.5875 19.6875 1.69375 20.09375 1.09375 20.59375 L 1.59375 21.6875 C 1.99375 21.3875 2.60625 21 3.40625 21 C 4.50625 21 4.90625 21.60625 4.90625 22.40625 C 4.90625 23.50625 4 24.60625 2 26.40625 L 1 27.3125 L 1 28.3125 L 6.8125 28.3125 L 6.8125 27 L 3.3125 27 L 4 26.3125 C 5.4 25.0125 6.5 23.8125 6.5 22.3125 C 6.5 20.9125 5.5875 19.6875 3.6875 19.6875 z M 11 23 L 11 27 L 50 27 L 50 23 L 11 23 z M 3.59375 36.59375 C 2.59375 36.59375 1.6875 36.8875 1.1875 37.1875 L 1.59375 38.40625 C 1.89375 38.20625 2.6125 37.90625 3.3125 37.90625 C 4.3125 37.90625 4.6875 38.4 4.6875 39 C 4.6875 39.9 3.7 40.1875 3 40.1875 L 2.3125 40.1875 L 2.3125 41.40625 L 3 41.40625 C 4 41.40625 4.90625 41.8125 4.90625 42.8125 C 4.90625 43.5125 4.3875 44.1875 3.1875 44.1875 C 2.3875 44.1875 1.6125 43.8875 1.3125 43.6875 L 0.8125 44.8125 C 1.3125 45.1125 2.1875 45.40625 3.1875 45.40625 C 5.2875 45.40625 6.5 44.2125 6.5 42.8125 C 6.4 41.7125 5.59375 40.8875 4.59375 40.6875 C 5.69375 40.2875 6.1875 39.5865 6.1875 38.6875 C 6.1875 37.5865 5.39375 36.59375 3.59375 36.59375 z M 11 40 L 11 44 L 50 44 L 50 40 L 11 40 z" color="#000" overflow="visible" enable-background="accumulate" font-family="Bitstream Vera Sans"></path>
</svg>