<?xml version="1.0" standalone="no"?>
<!DOCTYPE svg PUBLIC "-//W3C//DTD SVG 20010904//EN"
 "http://www.w3.org/TR/2001/REC-SVG-20010904/DTD/svg10.dtd">
<svg version="1.0" xmlns="http://www.w3.org/2000/svg"
 width="100.000000pt" height="100.000000pt" viewBox="0 0 100.000000 100.000000"
 preserveAspectRatio="xMidYMid meet">
<metadata>
Created by potrace 1.16, written by Peter Selinger 2001-2019
</metadata>
<g transform="translate(0.000000,100.000000) scale(0.100000,-0.100000)"
fill="#000000" stroke="none">
<path d="M600 800 c-16 -16 -30 -31 -30 -34 0 -2 -18 -24 -39 -48 -90 -100
-171 -198 -171 -207 0 -5 -9 -13 -20 -16 -11 -3 -20 -13 -20 -21 0 -8 -7 -17
-15 -20 -8 -4 -15 -16 -15 -28 0 -11 -7 -34 -15 -49 -8 -16 -17 -52 -21 -80
-4 -29 -11 -60 -16 -71 -16 -30 9 -36 65 -15 28 10 55 23 61 29 5 5 18 10 28
10 22 0 74 35 101 68 10 12 24 28 30 35 7 6 30 35 52 62 22 28 44 55 50 62 5
7 28 33 50 59 22 26 48 56 58 66 9 10 17 20 17 22 0 3 11 17 25 32 14 15 25
32 25 39 0 30 -122 135 -157 135 -7 0 -26 -13 -43 -30z m14 -79 c9 -13 -243
-306 -266 -309 -13 -2 -19 1 -16 9 8 23 253 309 265 309 6 0 14 -4 17 -9z m44
-34 c8 -10 -9 -36 -71 -109 -45 -53 -102 -121 -127 -152 -45 -55 -63 -66 -75
-46 -6 10 242 318 256 319 4 1 11 -5 17 -12z m-4 -124 c-33 -37 -93 -108 -133
-156 -53 -62 -77 -85 -85 -77 -14 14 -4 29 134 193 99 118 116 135 129 122 12
-12 6 -23 -45 -82z"/>
</g>
</svg>
